<?xml version="1.0" encoding="utf-8"?>
<svg width="117px" height="16px" viewBox="0 0 117 16" version="1.1" xmlns:xlink="http://www.w3.org/1999/xlink" xmlns="http://www.w3.org/2000/svg">
  <g id="Cart">
    <g id="$500---1-Item" fill="#6B6F81" transform="translate(26 0)">
      <path d="M4.21094 14.3301L4.21094 12.8467Q5.37305 12.6621 6.02588 12.0024Q6.67871 11.3428 6.67871 10.3721Q6.67871 9.56543 6.15576 8.93311Q5.63281 8.30078 4.21094 7.62402L4.21094 4.01465Q5.36621 4.05567 6.06348 4.60254L6.06348 3.44043Q5.55078 3.09863 4.21094 3.05762L4.21094 1.85449L3.5 1.85449L3.5 3.08496Q2.46094 3.22852 1.78418 3.94971Q1.10742 4.6709 1.10742 5.66211Q1.10742 6.49609 1.55176 7.10791Q1.99609 7.71973 3.5 8.44434L3.5 11.9443Q2.90527 11.9443 2.21826 11.7085Q1.53125 11.4727 1.13477 11.124L1.13477 12.3135Q2.04395 12.9014 3.5 12.9014L3.5 14.3301L4.21094 14.3301ZM47.2842 12.9014L48.4053 12.9014L48.4053 2.87988L47.9814 2.87988Q47.7217 3.10547 47.3662 3.34131Q47.0107 3.57715 46.6108 3.79248Q46.2109 4.00781 45.7974 4.18213Q45.3838 4.35645 45.0146 4.45898L45.0146 5.59375Q45.3428 5.51172 45.688 5.36816Q46.0332 5.22461 46.3442 5.06055Q46.6553 4.89648 46.9048 4.729Q47.1543 4.56152 47.2842 4.43164L47.2842 12.9014ZM22.0664 7.95898Q22.0664 9.18945 21.8442 10.1396Q21.6221 11.0898 21.2017 11.7427Q20.7813 12.3955 20.1694 12.7339Q19.5576 13.0723 18.7783 13.0723Q18.04 13.0723 17.4624 12.7476Q16.8848 12.4229 16.4883 11.8008Q16.0918 11.1787 15.8867 10.2729Q15.6816 9.36719 15.6816 8.19824Q15.6816 6.91309 15.897 5.92871Q16.1123 4.94434 16.5293 4.27783Q16.9463 3.61133 17.5649 3.27295Q18.1836 2.93457 18.9834 2.93457Q22.0664 2.93457 22.0664 7.95898ZM29.3911 10.1396Q29.6133 9.18945 29.6133 7.95898Q29.6133 2.93457 26.5303 2.93457Q25.7305 2.93457 25.1118 3.27295Q24.4932 3.61133 24.0762 4.27783Q23.6592 4.94434 23.4438 5.92871Q23.2285 6.91309 23.2285 8.19824Q23.2285 9.36719 23.4336 10.2729Q23.6387 11.1787 24.0352 11.8008Q24.4316 12.4229 25.0093 12.7476Q25.5869 13.0723 26.3252 13.0723Q27.1045 13.0723 27.7163 12.7339Q28.3281 12.3955 28.7485 11.7427Q29.1689 11.0898 29.3911 10.1396ZM13.9248 11.2061Q14.1709 10.625 14.1709 9.90723Q14.1709 9.22363 13.9487 8.67334Q13.7266 8.12305 13.2993 7.74365Q12.8721 7.36426 12.2568 7.15918Q11.6416 6.9541 10.8623 6.9541Q10.6709 6.9541 10.4248 6.96436Q10.1787 6.97461 9.95996 6.98828L10.1582 4.11035L13.7197 4.11035L13.7197 3.09863L9.1875 3.09863L8.85254 8.01367Q9.02344 7.99316 9.23193 7.97949Q9.44043 7.96582 9.65918 7.95557Q9.87793 7.94531 10.0967 7.93848Q10.3154 7.93164 10.5137 7.93164Q11.7373 7.93164 12.3799 8.4751Q13.0225 9.01855 13.0225 9.97559Q13.0225 10.4473 12.8618 10.8438Q12.7012 11.2402 12.4004 11.5205Q12.0996 11.8008 11.6724 11.958Q11.2451 12.1152 10.7119 12.1152Q9.66602 12.1152 8.66797 11.4727L8.66797 12.6621Q9.33105 13.0723 10.6982 13.0723Q11.4844 13.0723 12.127 12.8467Q12.7695 12.6211 13.2241 12.2041Q13.6787 11.7871 13.9248 11.2061ZM57.2715 12.9014L56.123 12.9014L56.123 3.09863L57.2715 3.09863L57.2715 12.9014ZM61.8994 13.0518Q62.5488 13.0518 62.9453 12.833L62.9453 11.876Q62.6377 12.1084 62.2139 12.1084Q61.6602 12.1084 61.4209 11.8076Q61.1816 11.5068 61.1816 10.8027L61.1816 6.8584L62.9453 6.8584L62.9453 5.90137L61.1816 5.90137L61.1816 3.83008L60.0605 4.19238L60.0605 5.90137L58.8574 5.90137L58.8574 6.8584L60.0605 6.8584L60.0605 11.001Q60.0605 13.0518 61.8994 13.0518ZM20.918 8.06836Q20.918 3.88477 18.9287 3.88477Q16.8301 3.88477 16.8301 8.14355Q16.8301 12.1152 18.8877 12.1152Q20.918 12.1152 20.918 8.06836ZM26.4756 3.88477Q28.4648 3.88477 28.4648 8.06836Q28.4648 12.1152 26.4346 12.1152Q24.377 12.1152 24.377 8.14355Q24.377 3.88477 26.4756 3.88477ZM3.5 4.05566L3.5 7.24121Q2.80273 6.8584 2.5293 6.48242Q2.25586 6.10645 2.25586 5.51855Q2.25586 4.95801 2.59082 4.56494Q2.92578 4.17188 3.5 4.05566ZM70.0684 9.68164L65.126 9.68164Q65.1533 10.8506 65.7549 11.4863Q66.3564 12.1221 67.4092 12.1221Q68.5918 12.1221 69.583 11.3428L69.583 12.3955Q68.6602 13.0654 67.1426 13.0654Q65.6592 13.0654 64.8115 12.1118Q63.9639 11.1582 63.9639 9.42871Q63.9639 7.79492 64.8901 6.76611Q65.8164 5.7373 67.1904 5.7373Q68.5645 5.7373 69.3164 6.62598Q70.0684 7.51465 70.0684 9.09375L70.0684 9.68164ZM80.582 12.9014L81.7031 12.9014L81.7031 8.58789Q81.7031 5.7373 79.3926 5.7373Q77.8477 5.7373 77.0684 7.18652Q76.8701 6.53711 76.3369 6.13721Q75.8037 5.7373 75.0859 5.7373Q73.6572 5.7373 72.9121 7.00879L72.8848 7.00879L72.8848 5.90137L71.7637 5.90137L71.7637 12.9014L72.8848 12.9014L72.8848 8.90918Q72.8848 7.91797 73.3633 7.29932Q73.8418 6.68066 74.5801 6.68066Q76.1729 6.68066 76.1729 8.74512L76.1729 12.9014L77.2939 12.9014L77.2939 8.90918Q77.2939 7.99316 77.7964 7.33691Q78.2988 6.68066 79.0166 6.68066Q79.8643 6.68066 80.2231 7.2002Q80.582 7.71973 80.582 8.88184L80.582 12.9014ZM68.9199 8.73145Q68.9131 7.76074 68.4517 7.2207Q67.9902 6.68066 67.1699 6.68066Q66.377 6.68066 65.8232 7.24805Q65.2695 7.81543 65.1396 8.73145L68.9199 8.73145ZM38.7393 9.44238L35.0068 9.44238L35.0068 8.56055L38.7393 8.56055L38.7393 9.44238ZM4.21094 11.8896L4.21094 8.7998Q5.53027 9.52441 5.53027 10.4678Q5.53027 11.6025 4.21094 11.8896Z" />
    </g>
    <path d="M7 4L7 2L15 2C16 2 16 3 16 3.3L14 10.3C13.8 10.7 13.4 11 13 11L3 11C2.4 11 2 10.6 2 10L2 2L0 2L0 0L3 0C3.6 0 4 0.4 4 1L4 9L12.3 9L13.7 4L7 4ZM1.58579 15.4142C0.804738 14.6332 0.804738 13.3668 1.58579 12.5858C2.36683 11.8047 3.63317 11.8047 4.41421 12.5858C5.19526 13.3668 5.19526 14.6332 4.41421 15.4142C3.63317 16.1953 2.36683 16.1953 1.58579 15.4142ZM11.5858 15.4142C10.8047 14.6332 10.8047 13.3668 11.5858 12.5858C12.3668 11.8047 13.6332 11.8047 14.4142 12.5858C15.1953 13.3668 15.1953 14.6332 14.4142 15.4142C13.6332 16.1953 12.3668 16.1953 11.5858 15.4142Z" id="Combined-Shape" fill="#8A91FF" fill-rule="evenodd" stroke="none" />
  </g>
</svg>