<?xml version="1.0" encoding="utf-8"?>
<svg width="16px" height="16px" viewBox="0 0 16 16" version="1.1" xmlns:xlink="http://www.w3.org/1999/xlink" xmlns="http://www.w3.org/2000/svg">
  <path d="M10.9483 16L12.9471 16C13.5468 16 14 15.5981 14 14.9953L14 8L14.946 8C15.2458 7.96232 15.5456 7.86185 15.7455 7.66091C16.1453 7.25903 16.0453 6.6562 15.6456 6.25432L8.64962 0.22606C8.24986 -0.0753532 7.75014 -0.0753532 7.35038 0.22606L0.354434 6.25432C-0.0453339 6.6562 -0.145276 7.25903 0.254492 7.66091C0.354434 7.86185 0.700174 8 1 8C1.19988 8 2 8 2 8L2 14.9953C2 15.5981 2.35328 16 2.95293 16L4.95177 16C5.55142 16 6 15.5981 6 14.9953L6 11.9812L10 12L10 14.9953C10 15.5981 10.3486 16 10.9483 16Z" id="Home" fill="#8A91FF" fill-rule="evenodd" stroke="none" />
</svg>